<svg height="464pt" viewBox="0 -16 464.00003 464" width="464pt" xmlns="http://www.w3.org/2000/svg"><path d="m464 120c.03125-57.871094-41.265625-107.511719-98.175781-118.007812-56.914063-10.5-113.203125 21.136718-133.824219 75.207031-20.621094-54.070313-76.910156-85.707031-133.824219-75.207031-56.910156 10.496093-98.207031 60.136718-98.175781 118.007812 0 136 165.726562 312 232 312s232-176 232-312zm0 0" fill="#fa507f"/><path d="m200 240h64v64c0 17.675781-14.328125 32-32 32s-32-14.324219-32-32zm0 0" fill="#d7cdbf"/><path d="m232 280c-4.417969 0-8-3.582031-8-8v-24c0-4.417969 3.582031-8 8-8s8 3.582031 8 8v24c0 4.417969-3.582031 8-8 8zm0 0" fill="#b79675"/><path d="m176 184c-4.417969 0-8-3.582031-8-8 0-13.007812-7.328125-24-16-24s-16 10.992188-16 24c0 4.417969-3.582031 8-8 8s-8-3.582031-8-8c0-22.054688 14.351562-40 32-40s32 17.945312 32 40c0 4.417969-3.582031 8-8 8zm0 0" fill="#603913"/><path d="m336 184c-.859375 0-1.714844-.140625-2.527344-.414062l-48-16c-3.285156-1.082032-5.503906-4.144532-5.503906-7.601563s2.21875-6.519531 5.503906-7.597656l48-16c4.195313-1.398438 8.730469.871093 10.128906 5.070312 1.394532 4.195313-.875 8.730469-5.074218 10.128907l-25.230469 8.414062 25.230469 8.417969c3.714844 1.246093 5.980468 4.996093 5.351562 8.863281s-3.960937 6.710938-7.878906 6.71875zm0 0" fill="#603913"/><path d="m296 248h-128c-4.417969 0-8-3.582031-8-8s3.582031-8 8-8h128c4.417969 0 8 3.582031 8 8s-3.582031 8-8 8zm0 0" fill="#a21d1f"/></svg>